<?xml version="1.0" encoding="utf-8"?>
<!-- Generator: Adobe Illustrator 16.0.0, SVG Export Plug-In . SVG Version: 6.00 Build 0)  -->
<!DOCTYPE svg PUBLIC "-//W3C//DTD SVG 1.1//EN" "http://www.w3.org/Graphics/SVG/1.1/DTD/svg11.dtd">
<svg version="1.1" id="Layer_1" xmlns="http://www.w3.org/2000/svg" xmlns:xlink="http://www.w3.org/1999/xlink" x="0px" y="0px"
	 width="191.02px" height="38px" viewBox="0 0 191.02 38" enable-background="new 0 0 191.02 38" xml:space="preserve">
<g>
	<path fill-rule="evenodd" clip-rule="evenodd" fill="#0A0AE2" d="M0,0.626c2.265,0,4.33-0.091,6.37,0.06
		c0.548,0.039,1.192,0.712,1.531,1.257c2.971,4.791,5.878,9.618,8.81,14.433c0.28,0.46,0.578,0.912,0.99,1.554
		c0.376-0.542,0.695-0.949,0.962-1.388c2.951-4.875,5.914-9.74,8.821-14.638c0.559-0.94,1.188-1.363,2.311-1.309
		c1.865,0.096,3.738,0.028,5.708,0.028c0,12.24,0,24.285,0,36.461c-2.222,0-4.438,0-6.918,0c0-7.631,0-15.287,0-22.945
		c-0.138-0.035-0.273-0.073-0.41-0.112c-0.324,0.461-0.675,0.908-0.965,1.389c-2.775,4.553-5.539,9.116-8.309,13.67
		c-1.061,1.735-1.283,1.733-2.368-0.045c-2.711-4.449-5.408-8.907-8.116-13.361C8.05,15.08,7.65,14.497,6.938,13.99
		c0,7.656,0,15.313,0,23.093c-2.399,0-4.601,0-6.938,0C0,24.977,0,12.931,0,0.626z"/>
	<path fill-rule="evenodd" clip-rule="evenodd" fill="#0A0AE2" d="M75.022,8.325c-2.136,1.227-4.058,2.335-5.974,3.435
		c-4.005-5.494-11.023-6.048-15.742-3.648c-4.963,2.521-7.376,8.354-5.889,14.125c1.414,5.483,6.417,9.023,12.464,8.815
		c5.465-0.188,9.418-2.883,10.274-7.21c-3.573,0-7.107,0-10.748,0c0-2.144,0-4.051,0-6.074c5.973,0,11.886,0,17.791,0
		c1.416,6.219-1.613,13.586-7.033,17.155c-9.092,5.989-22.472,2.88-27.725-6.649C38.735,21.557,39,14.689,43.233,8.292
		c4.188-6.327,10.39-8.854,17.872-8.212C66.939,0.586,71.544,3.273,75.022,8.325z"/>
</g>
<g>
	<path fill-rule="evenodd" clip-rule="evenodd" d="M184.348,36.242c0-4.858,0.006-9.588-0.009-14.316
		c-0.004-0.846-0.025-1.706-0.172-2.535c-0.418-2.369-1.759-3.584-4.012-3.74c-2.188-0.149-4.109,1.073-4.704,3.231
		c-0.331,1.208-0.429,2.511-0.444,3.773c-0.05,4.486-0.021,8.973-0.021,13.578c-2.218,0-4.314,0-6.71,0c0-0.607,0.002-1.246,0-1.88
		c-0.006-4.678,0.061-9.355-0.049-14.03c-0.068-2.843-1.473-4.356-3.92-4.646c-2.189-0.261-4.294,1.008-4.954,3.163
		c-0.315,1.025-0.436,2.143-0.447,3.222c-0.051,4.07-0.021,8.139-0.021,12.21c0,0.604,0,1.206,0,1.943c-2.233,0-4.382,0-6.658,0
		c0-8.64,0-17.298,0-26.038c2.249,0,4.409,0,6.6,0c0.035,0.751,0.07,1.416,0.117,2.403c2.07-2.215,4.463-3.27,7.308-3.222
		c2.926,0.048,5.3,1.143,7.068,3.692c2.255-2.839,5.231-3.867,8.705-3.672c4.607,0.257,8.51,3.585,8.8,8.407
		c0.371,6.097,0.096,12.232,0.096,18.458C188.806,36.242,186.708,36.242,184.348,36.242z"/>
	<path fill-rule="evenodd" clip-rule="evenodd" d="M116.294,8.531c-1.965,1.143-3.936,2.288-5.884,3.419
		c-5.047-6.027-12.774-6.888-18.015-2.105c-4.816,4.399-4.945,13.298-0.306,17.951c3.887,3.902,13.076,5.478,18.342-1.784
		c1.95,1.127,3.911,2.262,5.872,3.397c-3.934,6.874-12.631,10.094-20.908,7.884c-8.334-2.225-13.743-9.572-13.683-18.604
		c0.055-8.646,5.599-15.966,13.678-18.049C103.72-1.514,112.533,1.759,116.294,8.531z"/>
	<path fill-rule="evenodd" clip-rule="evenodd" d="M120.064,23.17c0.004-7.775,6.078-13.813,13.893-13.806
		c7.722,0.007,13.892,6.193,13.854,13.896c-0.039,7.715-6.23,13.851-13.946,13.814C126.069,37.044,120.064,30.991,120.064,23.17z
		 M140.994,23.361c0.06-4.16-2.829-7.29-6.843-7.404c-4.105-0.117-7.282,2.958-7.366,7.113c-0.084,4.146,2.98,7.356,7.076,7.413
		C137.875,30.535,140.926,27.488,140.994,23.361z"/>
</g>
</svg>
