<?xml version="1.0" encoding="utf-8"?>
<svg viewBox="0 0 145 35" version="1.1" xmlns="http://www.w3.org/2000/svg" xmlns:xlink="http://www.w3.org/1999/xlink">
    <g fill-rule="nonzero" fill="#000000">
        <path d="M77.595683,11.9303826 C77.595683,13.3497631 76.436993,14.5027456 75.0091696,14.5027456 C73.5813463,14.5027456 72.4226563,13.3497631 72.4226563,11.9303826 C72.4226563,10.5095925 73.5841792,9.35661005 75.0091696,9.35661005 C76.436993,9.35661005 77.595683,10.508183 77.595683,11.9303826 Z M75.056742,29.5 C74.052159,29.5 73.2445232,28.7049752 73.2445232,27.7227976 L73.2445232,17.2661996 C73.2445232,16.2855193 74.0582659,15.4875 75.056742,15.4875 C76.0582715,15.4875 76.8704875,16.2855193 76.8704875,17.2661996 L76.8704875,27.7227976 C76.8720143,28.7049752 76.061325,29.5 75.056742,29.5 Z"/>
        <path d="M96.3629188,30.2375 C95.3633363,30.2375 94.5499356,29.4677748 94.5499356,28.5168525 L94.5499356,12.7860466 C94.5499356,11.8380235 95.3618102,11.0625 96.3629188,11.0625 C97.3625013,11.0625 98.1759021,11.8380235 98.1759021,12.7860466 L98.1759021,28.5168525 C98.1759021,29.4677748 97.3625013,30.2375 96.3629188,30.2375"/>
        <path d="M85.9361378,25.6867213 C87.812719,25.6867213 89.3423815,24.1704642 89.3423815,22.3077582 C89.3423815,20.4450522 87.812719,18.9316941 85.9361378,18.9316941 C84.0522377,18.9316941 82.524039,20.4436026 82.524039,22.3077582 C82.524039,24.1690146 84.0551653,25.6867213 85.9361378,25.6867213 M80.7850543,34.6625 C79.8248069,34.6625 79.0460696,33.8913252 79.0460696,32.9418525 L79.0548523,21.9613093 C79.2407539,18.3562122 82.2547013,15.4875 85.9390654,15.4875 C89.7419966,15.4875 92.8247423,18.5432076 92.8247423,22.3121069 C92.8247423,26.0766575 89.7419966,29.1338146 85.9390654,29.1338146 C84.7475388,29.1338146 83.6306657,28.838101 82.6543165,28.3119047 L82.5269666,28.2408754 L82.5269666,32.9433021 C82.524039,33.8913252 81.743838,34.6625 80.7850543,34.6625"/>
        <path d="M106.796281,25.7200257 C108.67519,25.7200257 110.204364,24.1998976 110.204364,22.3324362 C110.204364,20.4649748 108.67519,18.9477533 106.796281,18.9477533 C104.915909,18.9477533 103.386735,20.4635216 103.386735,22.3324362 C103.386735,24.1984443 104.915909,25.7200257 106.796281,25.7200257 M111.94133,29.5 C111.221374,29.5 110.603852,29.0654701 110.337526,28.4420141 L110.274603,28.2327422 L110.072665,28.3460978 C109.099554,28.8721842 107.98011,29.170106 106.791891,29.170106 C102.987247,29.170106 99.9010954,26.1080507 99.9010954,22.3295297 C99.9010954,18.5524619 102.98871,15.4875 106.791891,15.4875 C110.597998,15.4875 113.67976,18.5524619 113.67976,22.3295297 L113.67976,27.7647869 C113.682686,28.7239499 112.904198,29.5 111.94133,29.5"/>
        <path d="M117.352728,29.4999665 C116.392854,29.5059286 115.611222,28.715948 115.6083,27.7351797 L115.580541,22.5123649 C115.580541,18.6310264 118.661779,15.4875 122.458904,15.4875 C126.254568,15.4875 129.334344,18.6310264 129.334344,22.4989501 L129.359181,27.6800301 C129.365025,28.662289 128.587776,29.4567411 127.627903,29.4641938 C126.66949,29.4686654 125.889319,28.6757037 125.886397,27.696426 L125.860099,22.5093838 C125.860099,20.5880915 124.334821,19.0334693 122.458904,19.0334693 C120.580065,19.0334693 119.054786,20.5880915 119.054786,22.4974596 L119.081084,27.7158028 C119.084006,28.6965712 118.31114,29.4954949 117.352728,29.4999665"/>
        <path d="M137.975939,29.5 C134.169425,29.5 131.084407,26.3641171 131.084407,22.4944942 C131.084407,18.6263595 134.169425,15.4875 137.975939,15.4875 C141.779526,15.4875 144.86308,18.6263595 144.86308,22.4944942 C144.86308,23.4693415 144.084508,24.2626142 143.125928,24.2626142 L138.22034,24.2626142 C137.263224,24.2626142 136.481725,23.4708298 136.481725,22.4944942 C136.481725,21.5166702 137.263224,20.7248858 138.22034,20.7248858 L140.897047,20.7248858 L140.80192,20.5596827 C140.187258,19.6354381 139.152577,19.0296933 137.974475,19.0296933 C136.090975,19.0296933 134.564565,20.5820074 134.564565,22.4974708 C134.564565,24.4069809 136.092439,25.9652483 137.974475,25.9652483 C138.928665,25.9652483 139.713091,26.754056 139.713091,27.7333683 C139.713091,28.7097039 138.931592,29.5 137.975939,29.5"/>
        <path d="M63.9062636,20.0412698 C65.7837102,20.0412698 67.3143486,21.5529497 67.3143486,23.4168235 C67.3143486,25.2806973 65.7837102,26.7938265 63.9062636,26.7938265 C62.024427,26.7938265 60.4967152,25.2806973 60.4967152,23.4168235 C60.4967152,21.5558485 62.024427,20.0412698 63.9062636,20.0412698 M58.7553579,11.0625 C57.7954164,11.0625 57.0154639,11.8350076 57.0154639,12.7843367 L57.0257072,23.7646693 C57.2086229,27.3706708 60.22161,30.2375 63.9062636,30.2375 C67.7079832,30.2375 70.7941366,27.1822543 70.7941366,23.4139248 C70.7941366,19.648494 67.7094465,16.5917989 63.9062636,16.5917989 C62.71658,16.5917989 61.597136,16.8903666 60.6210979,17.415034 L60.4952519,17.4860525 L60.4967152,12.7828874 C60.4967152,11.8364569 59.7152994,11.0625 58.7553579,11.0625"/>
        <path d="M46.1579769,16.124059 C46.6249601,16.2166894 46.9988289,16.4342306 47.3402486,16.775279 C47.83827,17.269308 48.056948,17.8278977 48.0879861,18.5099945 C48.056948,19.1920914 47.83827,19.7801543 47.3402486,20.2461135 C46.8732654,20.741546 46.2807187,20.9562802 45.5964684,20.987157 C45.5033539,20.9562802 45.3792012,20.9562802 45.2536378,20.9562802 C45.1294851,20.9254034 45.0039217,20.8945266 44.9108072,20.8636498 L34.8205834,18.848236 C34.7288798,19.8096277 34.5722781,20.7092657 34.2604857,21.578027 L44.4452348,23.6832642 L44.5707982,23.6832642 C45.0363706,23.7744912 45.4102394,23.9892254 45.7841081,24.3597471 C46.2821295,24.8271098 46.4993967,25.4165762 46.4993967,26.0972696 C46.4993967,26.7765595 46.2821295,27.3660259 45.7841081,27.8333886 C45.3157141,28.2951373 44.7245782,28.5463623 44.038917,28.5463623 C43.9147644,28.5463623 43.7906117,28.5463623 43.6650483,28.5154855 C43.5408956,28.5154855 43.4774085,28.4832052 43.384294,28.4509249 L31.2695357,26.0060427 C29.2450012,27.8361956 26.845187,28.7316232 24.0432877,28.7625 C21.0833758,28.7302197 18.5297817,27.7098814 16.4431708,25.6032406 C15.4767554,24.6727257 14.7600561,23.6495804 14.2309965,22.5043314 L2.05416188,19.9948886 C1.99208556,19.9948886 1.92859842,19.9948886 1.86793292,19.9640117 C1.46302601,19.8713813 1.0581191,19.6580506 0.747737499,19.3141952 C0.249716108,18.8496395 1.0658141e-14,18.2615765 1.0658141e-14,17.5808832 C1.0658141e-14,16.8987863 0.249716108,16.3416002 0.75055915,15.8475711 C1.21754238,15.3844189 1.80867825,15.1360009 2.46189044,15.1360009 C2.61849207,15.1360009 2.77368287,15.1654743 2.89783551,15.1654743 C2.95991184,15.1963511 3.02198816,15.1963511 3.08406448,15.1963511 L13.2998517,17.3029918 C13.361928,16.3416002 13.548157,15.4447691 13.8289113,14.6068847 L3.64416219,12.5002439 C3.14472997,12.4370868 2.71019573,12.1886688 2.36595431,11.8167435 C1.86934375,11.3521878 1.61962764,10.7627214 1.61962764,10.0806245 C1.61962764,9.40133465 1.86934375,8.84414852 2.36736514,8.34731253 C2.83575919,7.88275684 3.42689507,7.63574233 4.08010726,7.63574233 C4.20284907,7.63574233 4.29737438,7.63574233 4.42293785,7.66661914 C4.54709049,7.69749596 4.70228129,7.69749596 4.82784476,7.75924958 L16.7253359,10.1774655 C18.7809087,8.25608558 21.2103501,7.32557071 24.0446985,7.32557071 C27.0342376,7.32557071 29.5878317,8.34871602 31.6758534,10.4553568 C32.6718962,11.415345 33.4182229,12.5002439 33.9176551,13.6440895 L45.8772226,16.0945856 C46.0027861,16.0945856 46.0959006,16.0945856 46.1579769,16.124059 Z M20.087333,14.0791718 C19.5921333,14.545131 19.2182645,15.0714403 18.9685484,15.6286265 C18.5946797,16.3738805 18.4394889,17.1472043 18.4394889,18.0454388 L18.4394889,18.3556105 C18.502976,19.7492775 19.0616629,20.9885605 20.0887439,22.0103024 C21.1807228,23.0952013 22.488558,23.6537909 24.0461093,23.6537909 C25.6022498,23.6537909 26.942534,23.0937978 28.0331021,22.0103024 C28.4986745,21.5443432 28.8725432,21.0503142 29.1208485,20.5226014 C29.4933064,19.7787509 29.6809462,18.9436734 29.6809462,18.0440354 L29.6809462,17.7942139 C29.6188699,16.372477 29.0898104,15.1317905 28.0316913,14.0791718 C26.9411232,12.9942729 25.6022498,12.4370868 24.0446985,12.4370868 C22.4857363,12.4370868 21.1779011,12.9956764 20.087333,14.0791718 Z M22.7150389,0.183076079 L32.69322,2.21893714 C32.785901,2.21893714 32.8814337,2.2492204 32.9755406,2.27950367 C33.3847629,2.37035345 33.7312474,2.58095977 34.0763059,2.88792191 C34.5482662,3.37245409 34.8006437,3.91892931 34.8006437,4.58653757 C34.8006437,5.25414583 34.5482662,5.83228081 34.0763059,6.28928276 C33.5729767,6.77243843 33.0054837,6.98855079 32.3139407,7.01745754 C32.187039,6.98855079 32.0929321,6.98855079 31.9988252,6.98855079 C31.9360873,6.98855079 31.9047184,6.98855079 31.8419804,6.95826753 C31.7792425,6.95826753 31.7165046,6.95826753 31.6865615,6.92798427 L21.5501098,4.79989691 C20.9512478,4.7407069 20.4479186,4.52872407 20.0073273,4.10200539 C19.535367,3.6160967 19.2815636,3.06962148 19.2815636,2.40063671 C19.2815636,1.73165194 19.535367,1.15489346 20.0073273,0.699268033 C20.5120823,0.211982829 21.0767236,0 21.7696925,0 L21.8637994,0 C22.1789148,0 22.4626613,0.0605665225 22.7150389,0.183076079 Z"/>
    </g>
</svg>