<?xml version="1.0" encoding="utf-8"?>
<svg viewBox="0 0 113 27" version="1.1" xmlns="http://www.w3.org/2000/svg" xmlns:xlink="http://www.w3.org/1999/xlink">
    <g fill-rule="nonzero" fill="#000000">
        <path d="M8.034,22.312 C3.77,22.312 0.65,19.816 0.65,15.37 L0.65,15.162 C0.65,10.794 3.9,8.038 8.008,8.038 C11.726,8.038 14.924,10.17 14.924,15.058 L14.924,16.28 L5.356,16.28 C5.486,18.074 6.526,19.114 8.19,19.114 C9.724,19.114 10.374,18.412 10.556,17.502 L14.924,17.502 C14.508,20.57 12.142,22.312 8.034,22.312 Z M5.408,13.654 L10.4,13.654 C10.322,12.016 9.516,11.106 8.008,11.106 C6.604,11.106 5.642,12.016 5.408,13.654 Z M16.3405645,16.332 L22.9670436,16.332 L22.9670436,12.822 L16.3405645,12.822 L16.3405645,16.332 Z M31.7120872,18.75 C33.4540872,18.75 34.3900872,17.528 34.3900872,15.292 L34.3900872,15.084 C34.3900872,12.692 33.3500872,11.548 31.7120872,11.548 C30.0220872,11.548 29.0080872,12.77 29.0080872,15.058 L29.0080872,15.266 C29.0080872,17.58 30.0220872,18.75 31.7120872,18.75 Z M24.4840872,26.55 L24.4840872,8.402 L29.1380872,8.402 L29.1380872,10.43 C29.9180872,9.13 31.3220872,8.038 33.3760872,8.038 C36.5480872,8.038 39.1220872,10.43 39.1220872,15.084 L39.1220872,15.292 C39.1220872,19.972 36.5480872,22.312 33.3500872,22.312 C31.2960872,22.312 29.8140872,21.35 29.1380872,19.998 L29.1380872,26.55 L24.4840872,26.55 Z M40.0151308,22 L44.6691308,22 L44.6691308,15.552 C44.6691308,13.368 46.2291308,12.484 49.0631308,12.562 L49.0631308,8.22 C46.9571308,8.194 45.5271308,9.078 44.6691308,11.106 L44.6691308,8.402 L40.0151308,8.402 L40.0151308,22 Z M56.5341744,22.312 C52.3481744,22.312 49.0981744,19.764 49.0981744,15.37 L49.0981744,15.162 C49.0981744,10.794 52.3481744,8.038 56.5601744,8.038 C60.7461744,8.038 63.9701744,10.716 63.9701744,15.032 L63.9701744,15.24 C63.9701744,19.66 60.7201744,22.312 56.5341744,22.312 Z M56.5601744,18.854 C58.3021744,18.854 59.2381744,17.554 59.2381744,15.292 L59.2381744,15.084 C59.2381744,12.796 58.3281744,11.522 56.5601744,11.522 C54.8181744,11.522 53.8561744,12.744 53.8561744,15.032 L53.8561744,15.24 C53.8561744,17.58 54.7661744,18.854 56.5601744,18.854 Z M64.811218,22 L69.465218,22 L69.465218,14.122 C69.465218,12.64 70.297218,11.834 71.545218,11.834 C72.611218,11.834 73.287218,12.51 73.287218,13.888 L73.287218,22 L77.889218,22 L77.889218,14.122 C77.889218,12.64 78.721218,11.834 79.969218,11.834 C81.035218,11.834 81.711218,12.51 81.711218,13.888 L81.711218,22 L86.365218,22 L86.365218,13.108 C86.365218,9.702 84.493218,8.038 81.919218,8.038 C80.203218,8.038 78.591218,8.714 77.421218,10.3 C76.771218,8.818 75.523218,8.038 73.729218,8.038 C71.623218,8.038 70.193218,9.182 69.465218,10.482 L69.465218,8.402 L64.811218,8.402 L64.811218,22 Z M94.5382616,22.312 C90.3522616,22.312 87.1022616,19.764 87.1022616,15.37 L87.1022616,15.162 C87.1022616,10.794 90.3522616,8.038 94.5642616,8.038 C98.7502616,8.038 101.974262,10.716 101.974262,15.032 L101.974262,15.24 C101.974262,19.66 98.7242616,22.312 94.5382616,22.312 Z M94.5642616,18.854 C96.3062616,18.854 97.2422616,17.554 97.2422616,15.292 L97.2422616,15.084 C97.2422616,12.796 96.3322616,11.522 94.5642616,11.522 C92.8222616,11.522 91.8602616,12.744 91.8602616,15.032 L91.8602616,15.24 C91.8602616,17.58 92.7702616,18.854 94.5642616,18.854 Z"/>
        <path d="M107.397,10.078 C104.814,10.078 102.735,8.083 102.735,5.458 C102.735,2.875 104.793,0.796 107.397,0.796 C110.043,0.796 112.059,2.854 112.059,5.437 C112.059,8.062 110.001,10.078 107.397,10.078 Z M107.397,9.49 C109.665,9.49 111.408,7.789 111.408,5.437 C111.408,3.085 109.707,1.363 107.397,1.363 C105.108,1.363 103.386,3.106 103.386,5.458 C103.386,7.831 105.15,9.49 107.397,9.49 Z M106.62,5.206 L107.397,5.206 C108.069,5.206 108.405,4.933 108.405,4.408 L108.405,4.387 C108.405,3.799 108.048,3.568 107.397,3.568 L106.62,3.568 L106.62,5.206 Z M105.843,7.747 L105.843,2.959 L107.418,2.959 C108.468,2.959 109.161,3.421 109.161,4.366 L109.161,4.387 C109.161,5.122 108.741,5.521 108.09,5.668 L109.455,7.747 L108.594,7.747 L107.313,5.794 L106.62,5.794 L106.62,7.747 L105.843,7.747 Z"/>
    </g>
</svg>