<?xml version="1.0" encoding="utf-8"?>
<svg viewBox="0 0 64 60" version="1.1" xmlns="http://www.w3.org/2000/svg" xmlns:xlink="http://www.w3.org/1999/xlink">
    <g fill-rule="nonzero" fill="#000000">
        <path d="M31.98,0.193 C32.044,0.203 32.109,0.219 32.172,0.222 C32.487,0.239 32.804,0.245 33.119,0.267 C33.395,0.287 33.672,0.319 33.947,0.351 C34.201,0.381 34.454,0.418 34.708,0.454 C35.226,0.528 35.737,0.631 36.247,0.747 C37.727,1.085 39.157,1.574 40.525,2.233 C44.657,4.222 47.819,7.237 50.019,11.257 C50.976,13.007 51.653,14.865 52.076,16.815 C52.207,17.422 52.308,18.034 52.385,18.65 C52.468,19.327 52.515,20.005 52.539,20.686 C52.544,20.794 52.57,20.901 52.581,21.01 C52.593,21.118 52.603,21.227 52.606,21.335 C52.616,21.836 52.597,22.337 52.566,22.838 C52.434,24.982 52.018,27.068 51.287,29.089 C50.509,31.241 49.416,33.224 48.051,35.058 C46.826,36.704 45.422,38.185 43.877,39.533 C42.343,40.873 40.698,42.062 38.964,43.129 C36.08,44.9 33.037,46.33 29.831,47.416 C29.589,47.498 29.345,47.572 29.101,47.65 C29.086,47.654 29.07,47.654 29.033,47.66 C29.064,47.637 29.078,47.621 29.095,47.613 C29.579,47.324 30.017,46.972 30.434,46.597 C31.109,45.99 31.714,45.32 32.283,44.615 C32.88,43.875 33.426,43.101 33.938,42.303 C33.966,42.26 34.012,42.221 33.996,42.149 C33.867,42.161 33.738,42.172 33.609,42.184 C33.424,42.202 33.241,42.225 33.055,42.235 C32.637,42.256 32.217,42.274 31.798,42.288 C31.612,42.294 31.427,42.294 31.242,42.288 C30.823,42.274 30.403,42.259 29.985,42.233 C29.691,42.215 29.399,42.182 29.107,42.149 C28.853,42.12 28.6,42.083 28.346,42.047 C27.775,41.967 27.209,41.854 26.647,41.721 C24.738,41.274 22.925,40.573 21.218,39.61 C17.968,37.776 15.381,35.256 13.454,32.061 C12.317,30.176 11.505,28.158 11.003,26.015 C10.859,25.4 10.745,24.779 10.66,24.153 C10.584,23.591 10.529,23.028 10.495,22.462 C10.453,21.771 10.455,21.079 10.479,20.387 C10.496,19.897 10.537,19.408 10.592,18.921 C10.665,18.288 10.762,17.659 10.889,17.034 C11.226,15.371 11.755,13.773 12.482,12.241 C14.84,7.273 19.041,3.427 24.202,1.51 C25.224,1.131 26.27,0.833 27.339,0.618 C27.836,0.518 28.335,0.433 28.837,0.371 C29.22,0.323 29.607,0.292 29.991,0.262 C30.246,0.242 30.503,0.239 30.758,0.224 C30.827,0.22 30.898,0.204 30.966,0.194 C31.305,0.193 31.643,0.193 31.98,0.193 Z M38.854,29.583 C38.834,29.634 38.817,29.679 38.799,29.724 C38.657,30.091 38.422,30.384 38.094,30.601 C37.924,30.712 37.741,30.796 37.549,30.859 C37.229,30.961 36.901,30.996 36.567,30.996 C34.627,30.994 32.687,30.994 30.747,30.994 C30.692,30.994 30.638,30.994 30.583,30.992 C30.372,30.986 30.205,30.894 30.091,30.719 C30.038,30.639 29.997,30.547 29.964,30.455 C29.901,30.279 29.876,30.096 29.866,29.91 C29.847,29.572 29.864,29.234 29.904,28.898 C29.971,28.341 30.079,27.791 30.206,27.244 C30.442,26.231 30.737,25.234 31.057,24.244 C31.602,22.554 32.214,20.889 32.858,19.234 C33.999,16.3 35.23,13.404 36.516,10.531 C36.648,10.238 36.783,9.946 36.913,9.653 C36.931,9.611 36.97,9.57 36.936,9.506 C36.882,9.502 36.822,9.5 36.764,9.5 C36.241,9.5 35.718,9.5 35.195,9.5 C34.399,9.5 33.604,9.5 32.808,9.5 C32.744,9.5 32.677,9.486 32.611,9.522 C32.576,9.585 32.538,9.651 32.502,9.718 C32.113,10.437 31.714,11.149 31.294,11.851 C30.702,12.844 30.079,13.815 29.383,14.739 C28.929,15.34 28.447,15.916 27.903,16.438 C27.504,16.82 27.077,17.165 26.593,17.436 C26.161,17.677 25.703,17.845 25.213,17.915 C24.938,17.954 24.662,17.979 24.386,18.012 C24.295,18.023 24.204,18.037 24.114,18.05 C24.092,18.097 24.072,18.135 24.054,18.175 C23.911,18.511 23.768,18.846 23.627,19.183 C23.589,19.273 23.555,19.365 23.523,19.458 C23.514,19.486 23.517,19.519 23.514,19.561 C23.642,19.572 23.762,19.567 23.881,19.567 C24.311,19.566 24.742,19.561 25.172,19.563 C25.406,19.563 25.641,19.576 25.871,19.626 C26.161,19.689 26.263,19.834 26.234,20.129 C26.216,20.309 26.161,20.48 26.107,20.651 C25.975,21.071 25.804,21.478 25.675,21.9 C25.503,22.462 25.306,23.016 25.123,23.575 C24.564,25.277 24.008,26.979 23.495,28.696 C23.331,29.244 23.173,29.793 23.103,30.363 C23.055,30.754 23.033,31.144 23.088,31.537 C23.123,31.781 23.185,32.016 23.299,32.236 C23.487,32.593 23.775,32.824 24.163,32.933 C24.359,32.988 24.559,32.999 24.762,32.999 C28.113,32.999 31.464,33.001 34.816,32.999 C35.661,32.999 36.505,33.026 37.349,32.966 C37.67,32.945 37.988,32.904 38.3,32.827 C38.92,32.673 39.409,32.333 39.754,31.792 C39.838,31.659 39.918,31.522 39.99,31.382 C40.265,30.835 40.45,30.253 40.62,29.667 C40.627,29.644 40.623,29.616 40.626,29.585 C40.585,29.579 40.554,29.571 40.522,29.571 C40.151,29.556 39.004,29.563 38.854,29.583 Z M38.394,21.355 C38.764,20.309 39.129,19.279 39.495,18.248 C39.501,18.229 39.501,18.207 39.505,18.182 C39.425,18.142 39.342,18.146 39.262,18.144 C38.728,18.128 38.197,18.157 37.666,18.233 C37.05,18.322 36.45,18.474 35.874,18.709 C35.429,18.891 35.005,19.111 34.632,19.42 C34.034,19.914 33.581,20.52 33.243,21.215 C33.224,21.253 33.213,21.293 33.197,21.336 C33.22,21.345 33.234,21.355 33.249,21.355 C34.958,21.355 36.668,21.355 38.394,21.355 Z"/>
        <path d="M25.4,58.944 C25.473,58.985 25.525,59.014 25.577,59.044 C25.807,59.169 26.045,59.273 26.303,59.331 C26.57,59.392 26.833,59.386 27.091,59.294 C27.462,59.165 27.706,58.915 27.807,58.53 C27.833,58.43 27.858,58.331 27.883,58.229 C27.888,58.209 27.887,58.188 27.888,58.165 C27.831,58.147 27.786,58.169 27.74,58.183 C27.424,58.267 27.1,58.312 26.773,58.32 C26.571,58.326 26.371,58.304 26.173,58.259 C25.844,58.187 25.488,57.902 25.435,57.46 C25.414,57.282 25.43,57.11 25.47,56.94 C25.564,56.544 25.663,56.147 25.761,55.752 C25.795,55.613 25.827,55.477 25.865,55.34 C26.059,54.635 26.525,54.207 27.223,54.022 C27.467,53.958 27.717,53.94 27.968,53.944 C28.192,53.948 28.414,53.96 28.631,54.022 C28.71,54.043 28.786,54.071 28.867,54.098 C28.899,54.073 28.927,54.037 28.963,54.024 C28.997,54.01 29.038,54.016 29.077,54.018 C29.168,54.022 29.261,54.004 29.35,54.03 C29.371,54.085 29.349,54.132 29.337,54.178 C29.143,54.959 28.948,55.74 28.754,56.522 C28.596,57.157 28.44,57.79 28.281,58.424 C28.252,58.539 28.222,58.656 28.179,58.768 C27.971,59.309 27.576,59.643 27.012,59.756 C26.339,59.893 25.716,59.746 25.144,59.369 C25.126,59.357 25.109,59.346 25.084,59.328 C25.194,59.196 25.293,59.075 25.4,58.944 Z M28.766,54.655 C28.689,54.585 28.61,54.561 28.534,54.532 C28.222,54.417 27.899,54.38 27.57,54.407 C27.335,54.427 27.109,54.485 26.899,54.598 C26.612,54.754 26.421,54.989 26.324,55.299 C26.309,55.346 26.298,55.395 26.287,55.442 C26.225,55.69 26.164,55.938 26.103,56.188 C26.039,56.452 25.969,56.715 25.913,56.981 C25.847,57.295 25.929,57.676 26.431,57.811 C26.616,57.86 26.806,57.881 26.997,57.864 C27.148,57.85 27.301,57.835 27.451,57.811 C27.644,57.778 27.835,57.737 28.024,57.653 C28.273,56.657 28.519,55.659 28.766,54.655 Z"/>
        <path d="M47.751,54.101 C47.776,54.074 47.797,54.048 47.821,54.023 C47.955,54.017 48.09,54.015 48.237,54.025 C48.227,54.084 48.223,54.13 48.212,54.175 C47.874,55.538 47.535,56.902 47.195,58.263 C47.161,58.4 47.13,58.538 47.086,58.673 C46.884,59.288 46.462,59.655 45.825,59.767 C45.171,59.882 44.572,59.734 44.021,59.372 C44.007,59.364 43.997,59.351 43.985,59.341 C43.982,59.337 43.98,59.331 43.971,59.314 C44.068,59.197 44.166,59.076 44.272,58.949 C44.327,58.978 44.375,59.002 44.42,59.027 C44.658,59.16 44.905,59.271 45.174,59.332 C45.457,59.398 45.737,59.387 46.008,59.279 C46.349,59.146 46.577,58.908 46.675,58.549 C46.703,58.444 46.731,58.34 46.756,58.235 C46.761,58.214 46.757,58.192 46.757,58.174 C46.724,58.145 46.691,58.16 46.661,58.168 C46.384,58.254 46.098,58.293 45.81,58.314 C45.547,58.335 45.285,58.324 45.031,58.255 C44.661,58.155 44.411,57.923 44.323,57.54 C44.282,57.364 44.288,57.183 44.329,57.005 C44.4,56.693 44.477,56.38 44.554,56.069 C44.613,55.831 44.67,55.592 44.734,55.356 C44.924,54.643 45.391,54.21 46.096,54.022 C46.324,53.961 46.557,53.942 46.791,53.944 C47.031,53.946 47.27,53.954 47.503,54.022 C47.587,54.046 47.669,54.073 47.751,54.101 Z M46.896,57.657 C46.96,57.403 47.023,57.157 47.085,56.909 C47.147,56.657 47.209,56.403 47.272,56.149 C47.333,55.901 47.394,55.653 47.455,55.405 C47.517,55.153 47.588,54.903 47.64,54.639 C47.583,54.612 47.536,54.584 47.488,54.563 C47.313,54.487 47.128,54.444 46.938,54.418 C46.616,54.377 46.296,54.397 45.989,54.504 C45.564,54.654 45.284,54.942 45.177,55.387 C45.083,55.778 44.985,56.168 44.89,56.559 C44.849,56.729 44.798,56.897 44.779,57.069 C44.739,57.421 44.903,57.653 45.188,57.772 C45.228,57.788 45.27,57.801 45.312,57.813 C45.493,57.858 45.676,57.881 45.862,57.864 C46.018,57.852 46.175,57.835 46.331,57.809 C46.518,57.78 46.702,57.735 46.896,57.657 Z"/>
        <path d="M23.814,54.112 C23.855,54.051 23.863,53.985 23.878,53.923 C23.997,53.443 24.115,52.962 24.234,52.482 C24.246,52.435 24.26,52.388 24.275,52.337 C24.42,52.321 24.559,52.319 24.699,52.337 C24.702,52.36 24.709,52.378 24.705,52.392 C24.228,54.331 23.75,56.269 23.272,58.208 C23.127,58.235 22.992,58.22 22.853,58.22 C22.837,58.191 22.822,58.165 22.807,58.136 C22.791,58.134 22.775,58.13 22.76,58.134 C22.524,58.202 22.285,58.251 22.041,58.277 C21.707,58.314 21.378,58.295 21.056,58.195 C20.925,58.154 20.804,58.093 20.696,58.006 C20.508,57.856 20.404,57.66 20.376,57.422 C20.353,57.225 20.375,57.029 20.423,56.838 C20.543,56.352 20.664,55.867 20.787,55.381 C20.81,55.291 20.837,55.203 20.87,55.117 C21.083,54.551 21.484,54.187 22.063,54.025 C22.364,53.941 22.672,53.914 22.985,53.943 C23.225,53.964 23.459,54.011 23.688,54.082 C23.729,54.095 23.771,54.103 23.814,54.112 Z M23.709,54.612 C23.655,54.591 23.621,54.573 23.585,54.563 C23.433,54.522 23.282,54.475 23.127,54.444 C22.847,54.387 22.566,54.374 22.283,54.426 C21.723,54.531 21.367,54.854 21.229,55.41 C21.11,55.89 20.991,56.371 20.873,56.851 C20.855,56.925 20.842,57.001 20.838,57.078 C20.824,57.385 20.957,57.584 21.194,57.705 C21.306,57.762 21.427,57.791 21.552,57.812 C21.853,57.859 22.15,57.826 22.445,57.767 C22.62,57.732 22.794,57.685 22.966,57.595 C23.213,56.61 23.462,55.618 23.709,54.612 Z"/>
        <path d="M59.027,59.329 C59.118,59.194 59.22,59.077 59.325,58.96 C59.388,58.958 59.429,58.999 59.475,59.024 C59.713,59.159 59.96,59.268 60.229,59.331 C60.536,59.401 60.834,59.382 61.124,59.255 C61.432,59.118 61.635,58.888 61.728,58.567 C61.766,58.436 61.804,58.307 61.822,58.172 C61.77,58.141 61.729,58.164 61.689,58.176 C61.324,58.276 60.953,58.326 60.575,58.317 C60.417,58.315 60.261,58.297 60.105,58.258 C59.65,58.149 59.361,57.785 59.355,57.313 C59.353,57.17 59.376,57.032 59.41,56.893 C59.593,56.155 59.776,55.414 59.96,54.674 C60.007,54.485 60.055,54.293 60.103,54.104 C60.11,54.079 60.12,54.053 60.126,54.034 C60.267,53.999 60.424,54.001 60.557,54.034 C60.551,54.077 60.549,54.12 60.538,54.161 C60.319,55.048 60.1,55.936 59.878,56.823 C59.846,56.952 59.823,57.079 59.832,57.212 C59.846,57.442 59.95,57.618 60.154,57.726 C60.25,57.775 60.355,57.814 60.461,57.835 C60.631,57.866 60.805,57.878 60.981,57.862 C61.253,57.837 61.521,57.798 61.783,57.717 C61.994,57.651 61.951,57.676 61.997,57.494 C62.272,56.39 62.544,55.285 62.817,54.182 C62.83,54.129 62.845,54.078 62.86,54.024 C63.006,53.995 63.146,54.01 63.296,54.016 C63.289,54.059 63.287,54.09 63.28,54.121 C63.064,54.992 62.849,55.863 62.634,56.736 C62.487,57.328 62.34,57.92 62.191,58.509 C62.165,58.614 62.132,58.72 62.09,58.82 C61.869,59.343 61.472,59.656 60.92,59.761 C60.269,59.884 59.666,59.745 59.109,59.39 C59.081,59.374 59.058,59.353 59.027,59.329 Z"/>
        <path d="M43.569,55.347 C43.665,54.993 43.524,54.673 43.217,54.527 C43.041,54.443 42.854,54.414 42.663,54.404 C42.242,54.383 41.839,54.449 41.458,54.636 C41.444,54.644 41.429,54.648 41.405,54.656 C41.327,54.545 41.27,54.426 41.217,54.291 C41.269,54.264 41.316,54.236 41.363,54.215 C41.776,54.026 42.209,53.936 42.663,53.945 C42.897,53.949 43.131,53.957 43.359,54.019 C43.475,54.05 43.588,54.089 43.691,54.15 C43.92,54.283 44.045,54.482 44.074,54.744 C44.099,54.98 44.075,55.213 44.021,55.441 C43.918,55.875 43.81,56.308 43.704,56.742 C43.596,57.18 43.487,57.619 43.379,58.056 C43.364,58.113 43.347,58.169 43.33,58.228 C43.185,58.253 43.052,58.248 42.921,58.236 C42.903,58.207 42.89,58.183 42.874,58.158 C42.853,58.16 42.831,58.16 42.811,58.164 C42.641,58.201 42.472,58.246 42.301,58.275 C41.899,58.349 41.499,58.326 41.104,58.226 C40.977,58.193 40.856,58.144 40.744,58.076 C40.488,57.92 40.345,57.689 40.326,57.394 C40.293,56.865 40.448,56.392 40.78,55.982 C41.007,55.703 41.309,55.533 41.649,55.429 C41.926,55.343 42.213,55.31 42.502,55.298 C42.829,55.286 43.155,55.312 43.481,55.347 C43.508,55.351 43.534,55.347 43.569,55.347 Z M43.462,55.839 C43.441,55.823 43.437,55.818 43.433,55.818 C43.016,55.767 42.6,55.718 42.179,55.769 C41.989,55.792 41.803,55.828 41.624,55.898 C41.108,56.099 40.789,56.576 40.795,57.13 C40.799,57.403 40.925,57.597 41.166,57.718 C41.314,57.792 41.473,57.829 41.637,57.843 C41.898,57.863 42.158,57.864 42.417,57.812 C42.626,57.771 42.83,57.718 43.019,57.632 C43.073,57.505 43.373,56.331 43.457,55.917 C43.463,55.892 43.46,55.864 43.462,55.839 Z"/>
        <path d="M5.75,58.231 C5.602,58.252 5.468,58.243 5.336,58.239 C5.319,58.206 5.308,58.182 5.294,58.153 C5.257,58.161 5.219,58.165 5.184,58.176 C4.922,58.254 4.653,58.299 4.381,58.313 C4.064,58.331 3.75,58.293 3.445,58.2 C3.32,58.161 3.201,58.104 3.095,58.026 C2.894,57.88 2.776,57.68 2.755,57.436 C2.707,56.872 2.87,56.368 3.24,55.94 C3.495,55.645 3.832,55.483 4.205,55.393 C4.617,55.293 5.035,55.278 5.455,55.309 C5.618,55.319 5.78,55.336 5.943,55.35 C5.958,55.35 5.974,55.342 5.988,55.34 C5.996,55.328 6.007,55.322 6.009,55.313 C6.087,54.981 5.926,54.653 5.618,54.516 C5.451,54.442 5.274,54.412 5.094,54.403 C4.657,54.38 4.237,54.45 3.836,54.659 C3.816,54.634 3.794,54.612 3.779,54.585 C3.731,54.495 3.686,54.401 3.636,54.302 C3.671,54.279 3.7,54.255 3.733,54.24 C4.157,54.035 4.605,53.937 5.076,53.945 C5.316,53.949 5.556,53.953 5.788,54.021 C5.887,54.05 5.986,54.083 6.077,54.13 C6.341,54.265 6.479,54.487 6.502,54.782 C6.518,54.991 6.5,55.196 6.452,55.399 C6.362,55.78 6.268,56.161 6.174,56.542 C6.045,57.065 5.915,57.589 5.785,58.11 C5.778,58.147 5.766,58.183 5.75,58.231 Z M5.882,55.831 C5.866,55.825 5.853,55.813 5.838,55.811 C5.416,55.766 4.995,55.713 4.57,55.772 C4.391,55.795 4.217,55.831 4.049,55.895 C3.65,56.047 3.395,56.333 3.278,56.741 C3.25,56.841 3.229,56.942 3.22,57.044 C3.193,57.368 3.335,57.589 3.584,57.716 C3.727,57.786 3.88,57.825 4.037,57.841 C4.498,57.886 4.948,57.829 5.381,57.657 C5.406,57.647 5.429,57.636 5.463,57.618 C5.605,57.04 5.747,56.46 5.888,55.88 C5.89,55.866 5.884,55.849 5.882,55.831 Z"/>
        <path d="M35.83,58.231 C35.684,58.249 35.551,58.249 35.416,58.233 C35.402,58.206 35.391,58.182 35.377,58.155 C35.35,58.159 35.322,58.159 35.298,58.167 C35.036,58.249 34.768,58.292 34.496,58.312 C34.15,58.337 33.81,58.296 33.482,58.185 C33.379,58.15 33.282,58.095 33.192,58.037 C32.975,57.891 32.856,57.68 32.835,57.422 C32.792,56.887 32.946,56.41 33.278,55.99 C33.458,55.763 33.693,55.607 33.96,55.498 C34.193,55.404 34.438,55.353 34.688,55.324 C35.12,55.273 35.547,55.304 35.976,55.345 C35.997,55.349 36.02,55.351 36.041,55.349 C36.051,55.349 36.061,55.343 36.071,55.339 C36.078,55.331 36.089,55.323 36.092,55.314 C36.17,54.992 36.014,54.666 35.717,54.525 C35.551,54.447 35.374,54.416 35.195,54.406 C34.769,54.381 34.358,54.443 33.973,54.633 C33.953,54.643 33.934,54.651 33.911,54.66 C33.833,54.545 33.783,54.426 33.721,54.303 C33.755,54.28 33.784,54.258 33.817,54.242 C34.241,54.035 34.689,53.937 35.16,53.945 C35.399,53.949 35.639,53.955 35.872,54.021 C35.955,54.044 36.039,54.074 36.117,54.109 C36.42,54.246 36.572,54.486 36.59,54.814 C36.604,55.056 36.569,55.293 36.512,55.527 C36.299,56.4 36.081,57.271 35.866,58.142 C35.856,58.169 35.844,58.192 35.83,58.231 Z M35.977,55.825 C35.931,55.817 35.905,55.809 35.879,55.807 C35.722,55.791 35.565,55.782 35.408,55.762 C35.13,55.729 34.853,55.744 34.578,55.78 C34.417,55.801 34.258,55.842 34.106,55.903 C33.794,56.03 33.564,56.241 33.426,56.549 C33.353,56.715 33.308,56.889 33.297,57.069 C33.282,57.356 33.396,57.577 33.657,57.71 C33.715,57.739 33.776,57.761 33.839,57.782 C34,57.837 34.168,57.846 34.337,57.852 C34.717,57.866 35.083,57.797 35.439,57.668 C35.505,57.643 35.554,57.609 35.563,57.535 C35.565,57.514 35.575,57.492 35.58,57.471 C35.699,56.987 35.819,56.5 35.937,56.016 C35.951,55.958 35.961,55.901 35.977,55.825 Z"/>
        <path d="M51.47,56.282 C51.287,56.302 51.114,56.288 50.941,56.29 C50.767,56.294 50.592,56.292 50.419,56.292 C50.239,56.292 50.06,56.292 49.88,56.292 C49.705,56.292 49.53,56.29 49.357,56.292 C49.184,56.294 49.009,56.282 48.829,56.302 C48.813,56.349 48.796,56.396 48.784,56.441 C48.737,56.627 48.694,56.812 48.644,56.996 C48.618,57.092 48.611,57.189 48.614,57.287 C48.62,57.516 48.73,57.68 48.933,57.779 C49.067,57.847 49.211,57.873 49.36,57.877 C49.557,57.883 49.75,57.842 49.939,57.793 C50.198,57.727 50.447,57.631 50.69,57.52 C50.734,57.5 50.779,57.481 50.831,57.459 C50.89,57.588 50.934,57.713 50.949,57.854 C50.916,57.872 50.888,57.889 50.859,57.903 C50.499,58.073 50.127,58.21 49.733,58.28 C49.419,58.337 49.105,58.344 48.793,58.262 C48.752,58.252 48.709,58.239 48.669,58.223 C48.332,58.094 48.15,57.834 48.139,57.475 C48.134,57.327 48.156,57.182 48.191,57.037 C48.32,56.508 48.447,55.978 48.579,55.451 C48.607,55.336 48.644,55.221 48.69,55.111 C48.943,54.509 49.396,54.142 50.025,53.99 C50.351,53.912 50.682,53.908 51.012,53.988 C51.037,53.994 51.064,54.004 51.09,54.011 C51.443,54.118 51.743,54.386 51.758,54.913 C51.763,55.077 51.743,55.237 51.702,55.397 C51.64,55.639 51.581,55.883 51.519,56.126 C51.505,56.177 51.486,56.228 51.47,56.282 Z M51.124,55.821 C51.131,55.813 51.142,55.805 51.144,55.796 C51.188,55.616 51.236,55.439 51.272,55.257 C51.288,55.179 51.285,55.095 51.279,55.013 C51.262,54.798 51.165,54.628 50.972,54.523 C50.902,54.486 50.825,54.455 50.746,54.435 C50.504,54.373 50.258,54.378 50.018,54.441 C49.507,54.57 49.166,54.88 49.038,55.404 C49.011,55.515 48.983,55.627 48.958,55.736 C48.953,55.761 48.954,55.789 48.952,55.822 C48.991,55.828 49.022,55.838 49.053,55.84 C49.46,55.858 50.997,55.845 51.124,55.821 Z"/>
        <path d="M15.334,58.298 C15.24,58.3 15.068,58.284 14.9,58.232 C14.475,58.097 14.209,57.769 14.164,57.326 C14.142,57.107 14.155,56.89 14.206,56.678 C14.299,56.297 14.394,55.916 14.491,55.537 C14.556,55.281 14.656,55.041 14.798,54.818 C15.109,54.332 15.547,54.039 16.119,53.949 C16.412,53.904 16.703,53.902 16.993,53.98 C17.396,54.089 17.713,54.386 17.752,54.931 C17.769,55.16 17.743,55.388 17.688,55.611 C17.6,55.965 17.516,56.32 17.423,56.673 C17.319,57.069 17.132,57.423 16.842,57.716 C16.45,58.114 15.971,58.3 15.334,58.298 Z M17.293,55.214 C17.289,55.212 17.284,55.212 17.279,55.212 C17.279,55.179 17.28,55.146 17.279,55.112 C17.259,54.733 17.031,54.471 16.657,54.401 C16.484,54.37 16.313,54.368 16.137,54.393 C15.672,54.459 15.333,54.702 15.109,55.11 C15.035,55.245 14.979,55.385 14.942,55.534 C14.845,55.913 14.748,56.292 14.659,56.673 C14.619,56.843 14.607,57.017 14.638,57.193 C14.683,57.445 14.828,57.714 15.215,57.806 C15.727,57.927 16.329,57.761 16.687,57.263 C16.825,57.07 16.919,56.857 16.976,56.628 C17.061,56.29 17.147,55.952 17.226,55.614 C17.258,55.481 17.272,55.347 17.293,55.214 Z"/>
        <path d="M52.743,54.022 C52.881,53.997 53.015,54.006 53.148,54.016 C53.164,54.043 53.176,54.067 53.193,54.094 C53.217,54.09 53.245,54.088 53.27,54.082 C53.446,54.045 53.62,53.998 53.796,53.969 C54.165,53.91 54.532,53.91 54.896,54.018 C55.039,54.059 55.169,54.123 55.289,54.213 C55.481,54.358 55.592,54.549 55.621,54.789 C55.646,54.998 55.62,55.203 55.571,55.404 C55.354,56.293 55.136,57.179 54.919,58.066 C54.907,58.115 54.891,58.16 54.873,58.214 C54.736,58.226 54.602,58.222 54.471,58.218 C54.434,58.163 54.455,58.116 54.467,58.072 C54.542,57.765 54.618,57.459 54.694,57.152 C54.839,56.572 54.983,55.99 55.126,55.41 C55.153,55.299 55.176,55.187 55.17,55.07 C55.159,54.847 55.065,54.674 54.873,54.556 C54.722,54.462 54.554,54.417 54.379,54.402 C53.96,54.367 53.555,54.431 53.16,54.574 C53.068,54.607 53.022,54.662 52.999,54.758 C52.817,55.514 52.63,56.268 52.444,57.024 C52.357,57.378 52.27,57.731 52.181,58.086 C52.171,58.127 52.157,58.168 52.142,58.213 C51.998,58.227 51.859,58.229 51.721,58.211 C51.717,58.193 51.71,58.182 51.712,58.174 C52.047,56.811 52.382,55.447 52.718,54.084 C52.723,54.065 52.734,54.046 52.743,54.022 Z"/>
        <path d="M2.193,57.858 C2.156,58.008 2.122,58.145 2.089,58.282 C2.063,58.29 2.043,58.302 2.022,58.302 C1.742,58.306 1.468,58.269 1.208,58.161 C0.752,57.975 0.52,57.632 0.498,57.141 C0.487,56.911 0.521,56.686 0.577,56.463 C0.902,55.149 1.228,53.834 1.556,52.52 C1.571,52.458 1.57,52.387 1.627,52.332 C1.756,52.322 1.89,52.318 2.023,52.334 C2.049,52.396 2.025,52.447 2.013,52.498 C1.904,52.943 1.794,53.387 1.685,53.83 C1.673,53.877 1.666,53.924 1.658,53.965 C1.694,54.02 1.742,54.006 1.783,54.006 C2.061,54.008 2.339,54.008 2.616,54.008 C2.675,54.008 2.734,54.012 2.804,54.014 C2.793,54.172 2.743,54.307 2.706,54.455 C2.662,54.459 2.62,54.465 2.577,54.465 C2.289,54.467 2,54.465 1.711,54.465 C1.657,54.465 1.603,54.465 1.543,54.465 C1.527,54.506 1.509,54.539 1.501,54.574 C1.332,55.247 1.166,55.917 1,56.587 C0.959,56.753 0.946,56.921 0.976,57.089 C1.015,57.316 1.126,57.495 1.315,57.626 C1.456,57.724 1.614,57.78 1.782,57.81 C1.888,57.83 1.998,57.835 2.106,57.847 C2.126,57.849 2.147,57.853 2.193,57.858 Z"/>
        <path d="M32.269,57.854 C32.229,58.014 32.195,58.149 32.161,58.286 C32.131,58.294 32.11,58.302 32.09,58.302 C31.843,58.306 31.601,58.279 31.368,58.193 C31.266,58.156 31.165,58.113 31.073,58.056 C30.774,57.872 30.616,57.595 30.581,57.251 C30.557,57.011 30.576,56.772 30.634,56.538 C30.839,55.708 31.044,54.88 31.249,54.05 C31.376,53.538 31.503,53.027 31.63,52.515 C31.645,52.456 31.661,52.4 31.677,52.341 C31.822,52.316 31.954,52.325 32.085,52.333 C32.125,52.386 32.102,52.431 32.091,52.478 C32.003,52.832 31.916,53.185 31.829,53.539 C31.794,53.682 31.761,53.824 31.727,53.959 C31.758,54.02 31.805,54.008 31.847,54.008 C32.13,54.01 32.413,54.008 32.697,54.01 C32.756,54.01 32.817,53.998 32.879,54.033 C32.861,54.176 32.819,54.314 32.775,54.463 C32.575,54.473 32.379,54.465 32.185,54.467 C31.996,54.471 31.804,54.457 31.608,54.477 C31.591,54.526 31.574,54.569 31.562,54.616 C31.401,55.264 31.24,55.915 31.08,56.565 C31.036,56.745 31.016,56.926 31.055,57.114 C31.108,57.364 31.244,57.55 31.465,57.675 C31.658,57.784 31.871,57.825 32.09,57.845 C32.141,57.849 32.194,57.851 32.269,57.854 Z"/>
        <path d="M11.434,52.329 C11.572,52.329 11.691,52.327 11.81,52.329 C11.825,52.329 11.839,52.339 11.865,52.349 C11.839,52.533 11.782,52.708 11.74,52.886 C11.696,53.072 11.648,53.255 11.605,53.441 C11.563,53.621 11.507,53.796 11.481,53.978 C11.536,54.019 11.592,54.009 11.645,54.009 C11.917,54.009 12.19,54.009 12.462,54.009 C12.515,54.009 12.57,54.001 12.627,54.029 C12.612,54.177 12.571,54.316 12.523,54.459 C12.476,54.463 12.433,54.467 12.391,54.467 C12.102,54.467 11.813,54.467 11.524,54.467 C11.47,54.469 11.417,54.471 11.358,54.473 C11.341,54.526 11.324,54.573 11.312,54.619 C11.154,55.252 10.998,55.887 10.84,56.519 C10.805,56.658 10.78,56.796 10.785,56.939 C10.796,57.294 10.957,57.552 11.277,57.707 C11.456,57.793 11.648,57.83 11.845,57.846 C11.893,57.848 11.942,57.85 11.993,57.852 C12.018,57.936 11.979,58.006 11.964,58.079 C11.949,58.152 11.933,58.225 11.902,58.294 C11.784,58.319 11.675,58.302 11.568,58.292 C11.372,58.274 11.181,58.231 11,58.151 C10.609,57.979 10.384,57.682 10.332,57.255 C10.301,57.001 10.333,56.755 10.393,56.511 C10.651,55.458 10.913,54.407 11.173,53.355 C11.244,53.07 11.315,52.785 11.386,52.5 C11.399,52.446 11.416,52.394 11.434,52.329 Z"/>
        <path d="M10.25,54.265 C10.166,54.415 10.079,54.538 9.982,54.665 C9.94,54.647 9.9,54.634 9.863,54.614 C9.681,54.524 9.493,54.456 9.293,54.423 C8.684,54.321 8.188,54.507 7.817,55.007 C7.693,55.175 7.604,55.362 7.552,55.566 C7.444,55.986 7.342,56.41 7.24,56.834 C7.209,56.961 7.21,57.094 7.221,57.225 C7.24,57.428 7.338,57.582 7.516,57.686 C7.621,57.747 7.735,57.786 7.853,57.807 C8.073,57.848 8.296,57.862 8.519,57.827 C8.739,57.79 8.959,57.757 9.18,57.723 C9.217,57.717 9.255,57.721 9.296,57.721 C9.323,57.856 9.305,57.985 9.309,58.121 C9.233,58.141 9.166,58.16 9.098,58.176 C8.704,58.27 8.306,58.319 7.9,58.293 C7.635,58.277 7.384,58.215 7.161,58.064 C6.973,57.935 6.847,57.763 6.794,57.541 C6.764,57.414 6.749,57.285 6.759,57.152 C6.772,56.972 6.799,56.797 6.843,56.621 C6.923,56.305 6.998,55.988 7.078,55.672 C7.146,55.401 7.244,55.141 7.391,54.902 C7.699,54.404 8.133,54.086 8.711,53.97 C8.97,53.919 9.229,53.917 9.488,53.976 C9.75,54.036 9.999,54.128 10.25,54.265 Z"/>
        <path d="M59.359,54.269 C59.274,54.415 59.19,54.54 59.091,54.667 C59.034,54.642 58.981,54.618 58.927,54.593 C58.653,54.464 58.366,54.388 58.06,54.396 C57.683,54.406 57.362,54.546 57.095,54.81 C56.876,55.025 56.737,55.289 56.658,55.583 C56.577,55.882 56.505,56.183 56.43,56.485 C56.402,56.6 56.374,56.717 56.349,56.835 C56.322,56.964 56.319,57.095 56.331,57.226 C56.35,57.429 56.449,57.583 56.627,57.687 C56.732,57.748 56.847,57.785 56.964,57.806 C57.185,57.847 57.407,57.861 57.63,57.824 C57.851,57.789 58.07,57.756 58.291,57.722 C58.327,57.716 58.365,57.72 58.406,57.72 C58.43,57.857 58.415,57.986 58.417,58.12 C58.341,58.141 58.273,58.159 58.205,58.177 C57.81,58.269 57.412,58.32 57.007,58.292 C56.799,58.278 56.598,58.239 56.409,58.144 C56.093,57.986 55.91,57.736 55.875,57.378 C55.854,57.151 55.881,56.933 55.932,56.714 C56.015,56.355 56.107,55.995 56.198,55.636 C56.265,55.372 56.365,55.118 56.511,54.886 C56.816,54.402 57.242,54.089 57.807,53.974 C58.112,53.912 58.413,53.921 58.712,54.003 C58.897,54.054 59.074,54.122 59.245,54.204 C59.281,54.222 59.312,54.241 59.359,54.269 Z"/>
        <path d="M38,52.335 C38.14,52.325 38.273,52.315 38.403,52.339 C38.429,52.396 38.408,52.441 38.396,52.487 C38.236,53.143 38.076,53.798 37.914,54.452 C37.623,55.636 37.332,56.819 37.039,58.003 C37.022,58.071 37.002,58.138 36.982,58.21 C36.837,58.231 36.698,58.228 36.554,58.214 C36.554,58.187 36.552,58.165 36.555,58.146 C36.585,57.974 37.957,52.45 38,52.335 Z"/>
        <path d="M29.505,58.218 C29.368,58.228 29.233,58.224 29.104,58.22 C29.062,58.173 29.087,58.132 29.097,58.091 C29.247,57.48 29.398,56.866 29.549,56.253 C29.717,55.567 29.887,54.882 30.057,54.194 C30.07,54.141 30.084,54.089 30.098,54.04 C30.214,53.999 30.392,53.997 30.531,54.032 C30.532,54.048 30.538,54.065 30.534,54.079 C30.204,55.427 29.872,56.772 29.54,58.118 C29.531,58.149 29.519,58.179 29.505,58.218 Z"/>
        <path d="M25.034,54.022 C25.186,54.001 25.324,54.004 25.462,54.018 C25.464,54.049 25.469,54.067 25.465,54.082 C25.132,55.434 24.799,56.785 24.466,58.135 C24.459,58.16 24.447,58.186 24.436,58.217 C24.298,58.227 24.164,58.223 24.016,58.219 C24.019,58.174 24.017,58.137 24.026,58.104 C24.187,57.444 24.35,56.784 24.512,56.124 C24.671,55.481 24.83,54.837 24.989,54.192 C25.002,54.14 25.017,54.087 25.034,54.022 Z"/>
        <path d="M13.697,54.019 C13.845,54.007 13.98,53.999 14.112,54.023 C14.137,54.085 14.114,54.136 14.102,54.187 C13.944,54.832 13.787,55.476 13.628,56.119 C13.467,56.773 13.305,57.428 13.142,58.082 C13.132,58.123 13.118,58.164 13.104,58.211 C12.961,58.232 12.822,58.227 12.673,58.215 C12.677,58.178 12.678,58.147 12.685,58.117 C12.857,57.416 13.03,56.713 13.203,56.012 C13.349,55.416 13.496,54.819 13.643,54.223 C13.659,54.159 13.677,54.097 13.697,54.019 Z"/>
        <path d="M30.723,52.382 C30.944,52.372 30.953,52.503 30.918,52.642 C30.868,52.839 30.691,52.939 30.509,52.876 C30.446,52.853 30.408,52.812 30.407,52.745 C30.407,52.696 30.41,52.645 30.422,52.6 C30.453,52.479 30.536,52.378 30.723,52.382 Z"/>
        <path d="M25.669,52.382 C25.691,52.384 25.712,52.382 25.734,52.386 C25.816,52.398 25.859,52.445 25.863,52.527 C25.874,52.734 25.732,52.894 25.538,52.892 C25.506,52.892 25.474,52.884 25.443,52.874 C25.377,52.858 25.34,52.813 25.34,52.747 C25.34,52.692 25.342,52.636 25.358,52.587 C25.397,52.462 25.484,52.376 25.669,52.382 Z"/>
        <path d="M14.311,52.38 C14.358,52.384 14.391,52.384 14.422,52.392 C14.472,52.404 14.507,52.435 14.519,52.49 C14.567,52.715 14.378,52.924 14.157,52.89 C14.042,52.872 13.995,52.82 14,52.704 C14.006,52.571 14.047,52.456 14.183,52.405 C14.227,52.388 14.277,52.386 14.311,52.38 Z"/>
    </g>
</svg>